<svg width="100" height="100" viewBox="0 0 100 100" fill="none" xmlns="http://www.w3.org/2000/svg">
<path d="M50.9167 8.33337H49.0833C46.8732 8.33337 44.7536 9.21135 43.1908 10.7742C41.628 12.337 40.75 14.4566 40.75 16.6667V17.4167C40.7485 18.8781 40.3627 20.3133 39.6314 21.5785C38.9001 22.8437 37.8489 23.8944 36.5833 24.625L34.7917 25.6667C33.5248 26.3981 32.0878 26.7832 30.625 26.7832C29.1622 26.7832 27.7252 26.3981 26.4583 25.6667L25.8333 25.3334C23.9211 24.2303 21.6493 23.9311 19.5167 24.5013C17.384 25.0716 15.5648 26.4648 14.4583 28.375L13.5417 29.9584C12.4386 31.8706 12.1394 34.1424 12.7096 36.275C13.2799 38.4077 14.6731 40.2269 16.5833 41.3334L17.2083 41.75C18.4678 42.4772 19.5151 43.5212 20.2461 44.7785C20.977 46.0358 21.3662 47.4624 21.375 48.9167V51.0417C21.3808 52.5101 20.9986 53.954 20.2669 55.2272C19.5352 56.5003 18.48 57.5575 17.2083 58.2917L16.5833 58.6667C14.6731 59.7732 13.2799 61.5924 12.7096 63.7251C12.1394 65.8577 12.4386 68.1295 13.5417 70.0417L14.4583 71.625C15.5648 73.5353 17.384 74.9285 19.5167 75.4988C21.6493 76.069 23.9211 75.7698 25.8333 74.6667L26.4583 74.3334C27.7252 73.602 29.1622 73.2169 30.625 73.2169C32.0878 73.2169 33.5248 73.602 34.7917 74.3334L36.5833 75.375C37.8489 76.1057 38.9001 77.1564 39.6314 78.4216C40.3627 79.6868 40.7485 81.122 40.75 82.5834V83.3334C40.75 85.5435 41.628 87.6631 43.1908 89.2259C44.7536 90.7887 46.8732 91.6667 49.0833 91.6667H50.9167C53.1268 91.6667 55.2464 90.7887 56.8092 89.2259C58.372 87.6631 59.25 85.5435 59.25 83.3334V82.5834C59.2515 81.122 59.6373 79.6868 60.3686 78.4216C61.0999 77.1564 62.1511 76.1057 63.4167 75.375L65.2083 74.3334C66.4752 73.602 67.9122 73.2169 69.375 73.2169C70.8378 73.2169 72.2748 73.602 73.5417 74.3334L74.1667 74.6667C76.0789 75.7698 78.3507 76.069 80.4833 75.4988C82.616 74.9285 84.4352 73.5353 85.5417 71.625L86.4583 70C87.5614 68.0878 87.8607 65.816 87.2904 63.6834C86.7201 61.5507 85.3269 59.7315 83.4167 58.625L82.7917 58.2917C81.52 57.5575 80.4648 56.5003 79.7332 55.2272C79.0015 53.954 78.6192 52.5101 78.625 51.0417V48.9584C78.6192 47.49 79.0015 46.0461 79.7332 44.7729C80.4648 43.4998 81.52 42.4426 82.7917 41.7084L83.4167 41.3334C85.3269 40.2269 86.7201 38.4077 87.2904 36.275C87.8607 34.1424 87.5614 31.8706 86.4583 29.9584L85.5417 28.375C84.4352 26.4648 82.616 25.0716 80.4833 24.5013C78.3507 23.9311 76.0789 24.2303 74.1667 25.3334L73.5417 25.6667C72.2748 26.3981 70.8378 26.7832 69.375 26.7832C67.9122 26.7832 66.4752 26.3981 65.2083 25.6667L63.4167 24.625C62.1511 23.8944 61.0999 22.8437 60.3686 21.5785C59.6373 20.3133 59.2515 18.8781 59.25 17.4167V16.6667C59.25 14.4566 58.372 12.337 56.8092 10.7742C55.2464 9.21135 53.1268 8.33337 50.9167 8.33337Z" stroke="#FFB347" stroke-width="10" stroke-linecap="round" stroke-linejoin="round"/>
<path d="M50 62.5C56.9036 62.5 62.5 56.9036 62.5 50C62.5 43.0964 56.9036 37.5 50 37.5C43.0964 37.5 37.5 43.0964 37.5 50C37.5 56.9036 43.0964 62.5 50 62.5Z" stroke="#FFB347" stroke-width="10" stroke-linecap="round" stroke-linejoin="round"/>
</svg>
