<svg width="204" height="200" viewBox="0 0 204 200" fill="none" xmlns="http://www.w3.org/2000/svg">
<g clip-path="url(#clip0_37_199)">
<path d="M188.908 0H15.0524C6.72425 0 -0.0100098 6.44531 -0.0100098 14.4141V185.547C-0.0100098 193.516 6.72425 200 15.0524 200H188.908C197.236 200 204.01 193.516 204.01 185.586V14.4141C204.01 6.44531 197.236 0 188.908 0ZM60.5186 170.43H30.2344V74.9609H60.5186V170.43ZM45.3765 61.9531C35.6537 61.9531 27.8037 54.2578 27.8037 44.7656C27.8037 35.2734 35.6537 27.5781 45.3765 27.5781C55.0595 27.5781 62.9095 35.2734 62.9095 44.7656C62.9095 54.2187 55.0595 61.9531 45.3765 61.9531ZM173.845 170.43H143.601V124.023C143.601 112.969 143.402 98.7109 127.861 98.7109C112.121 98.7109 109.73 110.781 109.73 123.242V170.43H79.526V74.9609H108.535V88.0078H108.934C112.958 80.5078 122.84 72.5781 137.544 72.5781C168.187 72.5781 173.845 92.3438 173.845 118.047V170.43V170.43Z" fill="white" fill-opacity="0.9"/>
</g>
<defs>
<clipPath id="clip0_37_199">
<rect x="-0.0100098" width="204.02" height="200" rx="5" fill="white"/>
</clipPath>
</defs>
</svg>
