<svg width="135" height="138" viewBox="0 0 135 138" fill="none" xmlns="http://www.w3.org/2000/svg">
<path fill-rule="evenodd" clip-rule="evenodd" d="M55.1647 9.13477C45.9888 9.13477 38.5505 16.4936 38.5505 25.5712V36.9503H67.3058V40.1111H25.7704C16.5946 40.1111 9.15625 47.47 9.15625 56.5475V81.2023C9.15625 90.2798 16.5946 97.6385 25.7704 97.6385H35.3555V83.731C35.3555 74.6535 42.7939 67.2944 51.9698 67.2944H82.6419C90.4061 67.2944 96.6999 61.0677 96.6999 53.3869V25.5712C96.6999 16.4936 89.2618 9.13477 80.0859 9.13477H55.1647ZM51.3308 29.3642C54.507 29.3642 57.0817 26.8169 57.0817 23.6747C57.0817 20.5325 54.507 17.9851 51.3308 17.9851C48.1543 17.9851 45.5796 20.5325 45.5796 23.6747C45.5796 26.8169 48.1543 29.3642 51.3308 29.3642Z" fill="url(#paint0_linear_65_99)"/>
<path fill-rule="evenodd" clip-rule="evenodd" d="M80.085 128.615C89.2609 128.615 96.6994 121.256 96.6994 112.179V100.799H67.9439V97.6388H109.48C118.655 97.6388 126.094 90.2797 126.094 81.2022V56.5474C126.094 47.4699 118.655 40.1111 109.48 40.1111H99.8944V54.0187C99.8944 63.0966 92.4558 70.4553 83.2804 70.4553H52.6079C44.8436 70.4553 38.5498 76.682 38.5498 84.3628V112.179C38.5498 121.256 45.9884 128.615 55.1638 128.615H80.085ZM83.9193 108.386C80.7428 108.386 78.1681 110.933 78.1681 114.075C78.1681 117.217 80.7428 119.764 83.9193 119.764C87.0955 119.764 89.6702 117.217 89.6702 114.075C89.6702 110.933 87.0955 108.386 83.9193 108.386Z" fill="url(#paint1_linear_65_99)"/>
<defs>
<linearGradient id="paint0_linear_65_99" x1="52.9283" y1="9.13477" x2="52.9283" y2="97.6385" gradientUnits="userSpaceOnUse">
<stop stop-color="#327EBD"/>
<stop offset="1" stop-color="#1565A7"/>
</linearGradient>
<linearGradient id="paint1_linear_65_99" x1="82.3219" y1="40.1111" x2="82.3219" y2="128.615" gradientUnits="userSpaceOnUse">
<stop stop-color="#FFDA4B"/>
<stop offset="1" stop-color="#F9C600"/>
</linearGradient>
</defs>
</svg>
